<svg width="14" height="14" viewBox="0 0 14 14" fill="none" xmlns="http://www.w3.org/2000/svg">
<path d="M2.14648 13.2925H11.4844C12.9131 13.2925 13.624 12.5815 13.624 11.1733V2.82666C13.624 1.41846 12.9131 0.70752 11.4844 0.70752H2.14648C0.717773 0.70752 0 1.41162 0 2.82666V11.1733C0 12.5884 0.717773 13.2925 2.14648 13.2925ZM2.04395 12.1919C1.43555 12.1919 1.10059 11.8706 1.10059 11.2349V4.78857C1.10059 4.15967 1.43555 3.83154 2.04395 3.83154H11.5732C12.1816 3.83154 12.5234 4.15967 12.5234 4.78857V11.2349C12.5234 11.8706 12.1816 12.1919 11.5732 12.1919H2.04395ZM5.47559 6.28564H5.87891C6.11816 6.28564 6.2002 6.21729 6.2002 5.97803V5.57471C6.2002 5.33545 6.11816 5.26025 5.87891 5.26025H5.47559C5.23633 5.26025 5.1543 5.33545 5.1543 5.57471V5.97803C5.1543 6.21729 5.23633 6.28564 5.47559 6.28564ZM7.75195 6.28564H8.14844C8.3877 6.28564 8.46973 6.21729 8.46973 5.97803V5.57471C8.46973 5.33545 8.3877 5.26025 8.14844 5.26025H7.75195C7.50586 5.26025 7.43066 5.33545 7.43066 5.57471V5.97803C7.43066 6.21729 7.50586 6.28564 7.75195 6.28564ZM10.0215 6.28564H10.4248C10.6641 6.28564 10.7393 6.21729 10.7393 5.97803V5.57471C10.7393 5.33545 10.6641 5.26025 10.4248 5.26025H10.0215C9.78223 5.26025 9.7002 5.33545 9.7002 5.57471V5.97803C9.7002 6.21729 9.78223 6.28564 10.0215 6.28564ZM3.20605 8.521H3.60938C3.84863 8.521 3.92383 8.45264 3.92383 8.21338V7.81006C3.92383 7.5708 3.84863 7.50244 3.60938 7.50244H3.20605C2.9668 7.50244 2.88477 7.5708 2.88477 7.81006V8.21338C2.88477 8.45264 2.9668 8.521 3.20605 8.521ZM5.47559 8.521H5.87891C6.11816 8.521 6.2002 8.45264 6.2002 8.21338V7.81006C6.2002 7.5708 6.11816 7.50244 5.87891 7.50244H5.47559C5.23633 7.50244 5.1543 7.5708 5.1543 7.81006V8.21338C5.1543 8.45264 5.23633 8.521 5.47559 8.521ZM7.75195 8.521H8.14844C8.3877 8.521 8.46973 8.45264 8.46973 8.21338V7.81006C8.46973 7.5708 8.3877 7.50244 8.14844 7.50244H7.75195C7.50586 7.50244 7.43066 7.5708 7.43066 7.81006V8.21338C7.43066 8.45264 7.50586 8.521 7.75195 8.521ZM10.0215 8.521H10.4248C10.6641 8.521 10.7393 8.45264 10.7393 8.21338V7.81006C10.7393 7.5708 10.6641 7.50244 10.4248 7.50244H10.0215C9.78223 7.50244 9.7002 7.5708 9.7002 7.81006V8.21338C9.7002 8.45264 9.78223 8.521 10.0215 8.521ZM3.20605 10.7632H3.60938C3.84863 10.7632 3.92383 10.688 3.92383 10.4487V10.0454C3.92383 9.80615 3.84863 9.73779 3.60938 9.73779H3.20605C2.9668 9.73779 2.88477 9.80615 2.88477 10.0454V10.4487C2.88477 10.688 2.9668 10.7632 3.20605 10.7632ZM5.47559 10.7632H5.87891C6.11816 10.7632 6.2002 10.688 6.2002 10.4487V10.0454C6.2002 9.80615 6.11816 9.73779 5.87891 9.73779H5.47559C5.23633 9.73779 5.1543 9.80615 5.1543 10.0454V10.4487C5.1543 10.688 5.23633 10.7632 5.47559 10.7632ZM7.75195 10.7632H8.14844C8.3877 10.7632 8.46973 10.688 8.46973 10.4487V10.0454C8.46973 9.80615 8.3877 9.73779 8.14844 9.73779H7.75195C7.50586 9.73779 7.43066 9.80615 7.43066 10.0454V10.4487C7.43066 10.688 7.50586 10.7632 7.75195 10.7632Z" fill="url(#paint0_linear)"/>
<defs>
<linearGradient id="paint0_linear" x1="0" y1="0.70752" x2="14.6874" y2="2.10341" gradientUnits="userSpaceOnUse">
<stop stop-color="#5853F6"/>
<stop offset="1" stop-color="#2188FF"/>
</linearGradient>
</defs>
</svg>
