<svg width="17" height="14" viewBox="0 0 17 14" fill="none" xmlns="http://www.w3.org/2000/svg">
<path d="M2.77051 13.2549H14.207C15.4307 13.2549 16.1484 12.5439 16.1484 11.1357V4.11523C16.1484 2.70703 15.4238 1.99609 14.002 1.99609H7.43945C6.97461 1.99609 6.69434 1.88672 6.35254 1.59277L5.93555 1.25098C5.48438 0.868164 5.13574 0.745117 4.45898 0.745117H2.51074C1.31445 0.745117 0.624023 1.42871 0.624023 2.80273V11.1357C0.624023 12.5508 1.3418 13.2549 2.77051 13.2549ZM1.72461 2.86426C1.72461 2.1875 2.08008 1.83887 2.73633 1.83887H4.17871C4.62988 1.83887 4.90332 1.95508 5.25195 2.24902L5.66895 2.59766C6.11328 2.9668 6.47559 3.09668 7.15234 3.09668H13.9814C14.6582 3.09668 15.0479 3.46582 15.0479 4.17676V4.56641H1.72461V2.86426ZM2.78418 12.1543C2.10059 12.1543 1.72461 11.792 1.72461 11.0811V5.59863H15.0479V11.0879C15.0479 11.792 14.6582 12.1543 13.9814 12.1543H2.78418Z" fill="white"/>
</svg>
