<svg width="1139" height="574" viewBox="0 0 1139 574" fill="none" xmlns="http://www.w3.org/2000/svg">
<path d="M367 127H557V129H367V127ZM578 148V273H576V148H578ZM557 127C568.598 127 578 136.402 578 148H576C576 137.507 567.493 129 557 129V127Z" fill="url(#paint0_linear)"/>
<path d="M206 0H271V2H206V0ZM292 21V127H290V21H292ZM271 0C282.598 0 292 9.40202 292 21H290C290 10.5066 281.493 2 271 2V0Z" fill="url(#paint1_linear)"/>
<path d="M367 127H219V129H367V127ZM198 148V202H200V148H198ZM219 127C207.402 127 198 136.402 198 148H200C200 137.507 208.507 129 219 129V127Z" fill="white" fill-opacity="0.2"/>
<path fill-rule="evenodd" clip-rule="evenodd" d="M577 540C578 540 578 539.999 578 539.998V539.993V539.983V539.97V539.954V539.933V539.909V539.882V539.85V539.815V539.777V539.735V539.689V539.64V539.587V539.53V539.47V539.406V539.339V539.268V539.194V539.116V539.035V538.95V538.862V538.77V538.675V538.576V538.474V538.368V538.259V538.147V538.031V537.912V537.789V537.663V537.534V537.401V537.265V537.126V536.983V536.837V536.688V536.535V536.379V536.22V536.057V535.892V535.723V535.55V535.375V535.196V535.014V534.829V534.641V534.449V534.255V534.057V533.856V533.652V533.444V533.234V533.021V532.804V532.584V532.362V532.136V531.907V531.675V531.44V531.202V530.961V530.717V530.47V530.22V529.967V529.711V529.452V529.19V528.925V528.657V528.387V528.113V527.836V527.557V527.275V526.989V526.701V526.411V526.117V525.82V525.521V525.219V524.914V524.606V524.295V523.982V523.666V523.347V523.025V522.701V522.374V522.044V521.711V521.376V521.038V520.697V520.354V520.008V519.66V519.308V518.955V518.598V518.239V517.878V517.513V517.146V516.777V516.405V516.031V515.654V515.274V514.892V514.507V514.12V513.731V513.339V512.944V512.547V512.148V511.746V511.342V510.935V510.526V510.114V509.7V509.284V508.865V508.444V508.021V507.595V507.167V506.737V506.304V505.869V505.432V504.993V504.551V504.107V503.66V503.212V502.761V502.308V501.853V501.395V500.936V500.474V500.01V499.544V499.075V498.605V498.132V497.658V497.181V496.702V496.221V495.738V495.253V494.765V494.276V493.785V493.292V492.796V492.299V491.799V491.298V490.795V490.289V489.782V489.273V488.761V488.248V487.733V487.216V486.697V486.177V485.654V485.129V484.603V484.075V483.545V483.013V482.479V481.943V481.406V480.867V480.326V479.783V479.238V478.692V478.144V477.594V477.043V476.49V475.935V475.378V474.82V474.26V473.698V473.135V472.57V472.003V471.435V470.865V470.294V469.721V469.146V468.57V467.992V467.413V466.832V466.249V465.665V465.08V464.493V463.904V463.314V462.723V462.13V461.536V460.94V460.342V459.744V459.144V458.542V457.939V457.335V456.729V456.122V455.514V454.904V454.293V453.68V453.066V452.451V451.835V451.217V450.598V449.978V449.356V448.734V448.11L578 447.484V446.858V446.23V445.601V444.971V444.34V443.707V443.074V442.439V441.803V441.166V440.528V439.889V439.248V438.607V437.964V437.321V436.676V436.03V435.383V434.736V434.087V433.437V432.786V432.134V431.481V430.827V430.173V429.517V428.86V428.203V427.544V426.885V426.224V425.563V424.901V424.238V423.574V422.909V422.243V421.577V420.91V420.242V419.573V418.903V418.232V417.561V416.889V416.216V415.543V414.868V414.193V413.518V412.841V412.164V411.486V410.808V410.129V409.449V408.768V408.087V407.405V406.723V406.04V405.356V404.672V403.988V403.302V402.616V401.93V401.243V400.555V399.867V399.179V398.49V397.8V397.11V396.42V395.729V395.037V394.346V393.653V392.961V392.268V391.574V390.88V390.186V389.491V388.796V388.101V387.405V386.709V386.013V385.316V384.619V383.922V383.224V382.526V381.828V381.13V380.431V379.732V379.033V378.334V377.635V376.935V376.235V375.535V374.835V374.135V373.434V372.733V372.033V371.332V370.631V369.93V369.229V368.527V367.826V367.125V366.423V365.722V365.02V364.319V363.617V362.916V362.214V361.513V360.812V360.11V359.409V358.708V358.006V357.305V356.604V355.903V355.203V354.502V353.801V353.101V352.401V351.701V351.001V350.301V349.601V348.902V348.203V347.504V346.805V346.107V345.409V344.711V344.013V343.498C578.004 343.333 578.006 343.167 578.006 343V301H578V300.377V299.718V299.06V298.403V297.747V297.092V296.438V295.785V295.132V294.481V293.831V293.182V292.534V291.886V291.24V290.595V289.951V289.308V288.666V288.026V287.386V286.747V286.11V285.474V284.838V284.204V283.572V282.94V282.309V281.68V281.052V280.425V279.799V279.175V278.552V277.93V277.309V276.689V276.071V275.454V274.839V274.225V273.612V273L576 273V273.612V274.225V274.839V275.454V276.071V276.689V277.309V277.93V278.552V279.175V279.799V280.425V281.052V281.68V282.309V282.94V283.572V284.204V284.838V285.474V286.11V286.747V287.386V288.026V288.666V289.308V289.951V290.595V291.24V291.886V292.534V293.182V293.831V294.481V295.132V295.785V296.438V297.092V297.747V298.403V299.06V299.718V300.377V301.037V301.698V302.359V303.022V303.685V304.349V305.014V305.68V306.347V307.015V307.683V308.352V309.022V309.693V310.365V311.037V311.71V312.384V313.058V313.734V314.41V315.086V315.764V316.442V317.12V317.8V318.48V319.161V319.842V320.524V321.207V321.89V322.574V323.258V323.943V324.628V325.315V326.001V326.688V327.376V328.064V328.753V329.442V330.132V330.822V331.513V332.204V332.895V333.587V334.28V334.973V335.666V336.36V337.054V337.748V338.443V339.138V339.833V340.529V341.225V341.922V342.619V343.316V343.474C575.748 353.748 567.341 362 557.006 362H406V364H557.006C565.396 364 572.636 359.08 576 351.968V352.401V353.101V353.801V354.502V355.203V355.903V356.604V357.305V358.006V358.708V359.409V360.11V360.812V361.513V362.214V362.916V363.617V364.319V365.02V365.722V366.423V367.125V367.826V368.527V369.229V369.93V370.631V371.332V372.033V372.733V373.434V374.135V374.835V375.535V376.235V376.935V377.635V378.334V379.033V379.732V380.431V381.13V381.828V382.526V383.224V383.922V384.619V385.316V386.013V386.709V387.405V388.101V388.796V389.491V390.186V390.88V391.574V392.268V392.961V393.653V394.346V395.037V395.729V396.42V397.11V397.8V398.49V399.179V399.867V400.555V401.243V401.93V402.616V403.302V403.988V404.672V405.356V406.04V406.723V407.405V408.087V408.768V409.449V410.129V410.808V411.486V412.164V412.841V413.518V414.193V414.868V415.543V416.216V416.889V417.561V418.232V418.903V419.573V420.242V420.91V421.577V422.243V422.909V423.574V424.238V424.901V425.563V426.224V426.885V427.544V428.203V428.86V429.517V430.173V430.827V431.481V432.134V432.786V433.437V434.087V434.736V435.383V436.03V436.676V437.321V437.964V438.607V439.248V439.889V440.528V441.166V441.803V442.439V443.074V443.707V444.34V444.971V445.601V446.23V446.858V447.484L576 448.11V448.734V449.356V449.978V450.598V451.217V451.835V452.451V453.066V453.68V454.293V454.904V455.514V456.122V456.729V457.335V457.939V458.542V459.144V459.744V460.342V460.94V461.536V462.13V462.723V463.314V463.904V464.493V465.08V465.665V466.249V466.832V467.413V467.992V468.57V469.146V469.721V470.294V470.865V471.435V472.003V472.57V473.135V473.698V474.26V474.82V475.378V475.935V476.49V477.043V477.594V478.144V478.692V479.238V479.783V480.326V480.867V481.406V481.943V482.479V483.013V483.545V484.075V484.603V485.129V485.654V486.177V486.697V487.216V487.733V488.248V488.761V489.273V489.782V490.289V490.795V491.298V491.799V492.299V492.796V493.292V493.785V494.276V494.765V495.253V495.738V496.221V496.702V497.181V497.658V498.132V498.605V499.075V499.544V500.01V500.474V500.936V501.395V501.853V502.308V502.761V503.212V503.66V504.107V504.551V504.993V505.432V505.869V506.304V506.737V507.167V507.595V508.021V508.444V508.865V509.284V509.7V510.114V510.526V510.935V511.342V511.746V512.148V512.547V512.944V513.339V513.731V514.12V514.507V514.892V515.274V515.654V516.031V516.405V516.777V517.146V517.513V517.878V518.239V518.598V518.955V519.308V519.66V520.008V520.354V520.697V521.038V521.376V521.711V522.044V522.374V522.701V523.025V523.347V523.666V523.982V524.295V524.606V524.914V525.219V525.521V525.82V526.117V526.411V526.701V526.989V527.275V527.557V527.836V528.113V528.387V528.657V528.925V529.19V529.452V529.711V529.967V530.22V530.47V530.717V530.961V531.202V531.44V531.675V531.907V532.136V532.362V532.584V532.804V533.021V533.234V533.444V533.652V533.856V534.057V534.255V534.449V534.641V534.829V535.014V535.196V535.375V535.55V535.723V535.892V536.057V536.22V536.379V536.535V536.688V536.837V536.983V537.126V537.265V537.401V537.534V537.663V537.789V537.912V538.031V538.147V538.259V538.368V538.474V538.576V538.675V538.77V538.862V538.95V539.035V539.116V539.194V539.268V539.339V539.406V539.47V539.53V539.587V539.64V539.689V539.735V539.777V539.815V539.85V539.882V539.909V539.933V539.954V539.97V539.983V539.993V539.998C576 539.999 576 540 577 540ZM577 540H578C578 540.552 577.552 541 577 541C576.448 541 576 540.552 576 540H577Z" fill="url(#paint2_linear)"/>
<path d="M776 409H866V407H776V409ZM887 388V285H885V388H887ZM866 409C877.598 409 887 399.598 887 388H885C885 398.493 876.493 407 866 407V409Z" fill="white" fill-opacity="0.2"/>
<path d="M887 196H975V194H887V196ZM996 175V76H994V175H996ZM975 196C986.598 196 996 186.598 996 175H994C994 185.493 985.493 194 975 194V196Z" fill="url(#paint3_linear)"/>
<path fill-rule="evenodd" clip-rule="evenodd" d="M406 378V412C406 422.493 414.507 431 425 431H448V433H425C416.605 433 409.361 428.075 406 420.956V497C406 508.598 396.598 518 385 518H365V516H385C395.493 516 404 507.493 404 497V412V385.215C401.55 389.281 397.093 392 392 392H255V390H392C398.627 390 404 384.627 404 378V362H406V378Z" fill="white" fill-opacity="0.2"/>
<path d="M255 392H21V390H255V392ZM7.39098e-06 371V337H2.00001V371H7.39098e-06ZM21 392C9.40203 392 7.39098e-06 382.598 7.39098e-06 371H2.00001C2.00001 381.493 10.5066 390 21 390V392Z" fill="url(#paint4_linear)"/>
<path d="M365 516H168V518H365V516ZM147 537V574H149V537H147ZM168 516C156.402 516 147 525.402 147 537H149C149 526.507 157.507 518 168 518V516Z" fill="url(#paint5_linear)"/>
<path d="M198 154H83V156H198V154ZM62 175V235H64V175H62ZM83 154C71.402 154 62 163.402 62 175H64C64 164.507 72.5066 156 83 156V154Z" fill="url(#paint6_linear)"/>
<path d="M1139 490H1035V488H1139V490ZM1014 469V435H1016V469H1014ZM1035 490C1023.4 490 1014 480.598 1014 469H1016C1016 479.493 1024.51 488 1035 488V490Z" fill="url(#paint7_linear)"/>
<path d="M578 272H883V274H578V272ZM883 272C884.105 272 885 272.895 885 274H883L883 274V272Z" fill="url(#paint8_linear)"/>
<path d="M852 120H866V122H852V120ZM887 141V285H885V141H887ZM866 120C877.598 120 887 129.402 887 141H885C885 130.507 876.493 122 866 122V120Z" fill="white" fill-opacity="0.2"/>
<path d="M887 326H995V328H887V326ZM1016 347V435H1014V347H1016ZM995 326C1006.6 326 1016 335.402 1016 347H1014C1014 336.507 1005.49 328 995 328V326Z" fill="white" fill-opacity="0.2"/>
<defs>
<linearGradient id="paint0_linear" x1="577" y1="273" x2="577" y2="159.335" gradientUnits="userSpaceOnUse">
<stop stop-color="white" stop-opacity="0.1"/>
<stop offset="1" stop-color="white" stop-opacity="0.2"/>
</linearGradient>
<linearGradient id="paint1_linear" x1="273" y1="1" x2="206" y2="1" gradientUnits="userSpaceOnUse">
<stop stop-color="white" stop-opacity="0.2"/>
<stop offset="1" stop-color="white" stop-opacity="0"/>
</linearGradient>
<linearGradient id="paint2_linear" x1="578.006" y1="303.5" x2="578.006" y2="577" gradientUnits="userSpaceOnUse">
<stop stop-color="white" stop-opacity="0.1"/>
<stop offset="1" stop-color="white" stop-opacity="0.2"/>
</linearGradient>
<linearGradient id="paint3_linear" x1="995" y1="172" x2="995" y2="76" gradientUnits="userSpaceOnUse">
<stop stop-color="white" stop-opacity="0.2"/>
<stop offset="1" stop-color="white" stop-opacity="0"/>
</linearGradient>
<linearGradient id="paint4_linear" x1="1" y1="373.5" x2="1" y2="337" gradientUnits="userSpaceOnUse">
<stop stop-color="white" stop-opacity="0.2"/>
<stop offset="1" stop-color="white" stop-opacity="0"/>
</linearGradient>
<linearGradient id="paint5_linear" x1="148" y1="533.5" x2="148" y2="574" gradientUnits="userSpaceOnUse">
<stop stop-color="white" stop-opacity="0.2"/>
<stop offset="1" stop-color="white" stop-opacity="0"/>
</linearGradient>
<linearGradient id="paint6_linear" x1="63" y1="173" x2="63" y2="235" gradientUnits="userSpaceOnUse">
<stop stop-color="white" stop-opacity="0.2"/>
<stop offset="1" stop-color="white" stop-opacity="0"/>
</linearGradient>
<linearGradient id="paint7_linear" x1="1033" y1="489" x2="1139" y2="489" gradientUnits="userSpaceOnUse">
<stop stop-color="white" stop-opacity="0.2"/>
<stop offset="1" stop-color="white" stop-opacity="0"/>
</linearGradient>
<linearGradient id="paint8_linear" x1="884" y1="273" x2="578" y2="273.001" gradientUnits="userSpaceOnUse">
<stop stop-color="white" stop-opacity="0.2"/>
<stop offset="1" stop-color="white" stop-opacity="0.1"/>
</linearGradient>
</defs>
</svg>
